<?xml version="1.0" encoding="UTF-8"?>
<svg width="1000px" height="560px" viewBox="0 0 1000 560" version="1.1" xmlns="http://www.w3.org/2000/svg" xmlns:xlink="http://www.w3.org/1999/xlink">
    <!-- Generator: Sketch 63 (92445) - https://sketch.com -->
    <title>Fill 1</title>
    <desc>Created with Sketch.</desc>
    <g id="Page-1" stroke="none" stroke-width="1" fill="none" fill-rule="evenodd">
        <g id="Website_v1b" transform="translate(-217.000000, -3697.000000)" fill="#4F4F4F">
            <g id="Location" transform="translate(217.000000, 3614.000000)">
                <g id="Map-in-Hole" transform="translate(0.000000, 80.000000)">
                    <path d="M943.241446,345.30113 C943.241446,339.464102 943.261219,333.625671 943.234031,327.788643 C943.21673,324.29596 941.55085,322.498441 936.019338,322.372251 C929.135843,322.215213 923.493108,320.182138 917.106411,319.374516 C914.973393,319.103907 912.400424,318.317317 911.327736,317.317605 C908.564452,314.746116 905.647926,312.049838 904.370092,309.178295 C901.317627,302.303697 893.744547,296.714844 889.050918,290.345009 C887.375152,288.07077 885.434921,287.14537 881.1936,287.180423 C869.255619,287.279973 857.315165,287.21127 845.377183,287.221084 C843.760736,287.222487 842.08497,287.156587 840.537728,287.365503 C838.328089,287.665557 835.643897,288.865772 834.175748,288.470374 C831.447066,287.734261 829.049583,286.287272 827.223047,284.845892 C822.245181,280.918552 817.647946,276.834174 812.862866,272.825511 C812.408086,272.445536 811.716029,272.158102 811.132724,271.827201 C810.707603,272.411885 809.956227,272.988157 809.909266,273.582656 C809.632444,276.940735 809.852419,280.209079 807.677383,283.56856 C805.85579,286.384018 808.821748,289.911754 804.968474,292.758059 C804.573013,293.051102 804.970946,293.67084 804.906684,294.134942 C804.095988,300.014034 804.162722,305.995481 802.086552,311.72735 C800.959487,314.837254 800.284732,317.86303 799.864555,320.991162 C799.602562,322.970956 801.325289,324.328209 803.717829,324.966174 C818.715691,328.966424 831.966109,334.657632 846.627829,338.941111 C849.032727,339.643573 849.574014,340.191803 849.354039,341.349954 C848.456837,346.031635 848.095978,350.786227 846.368308,355.371161 C843.859601,362.036843 843.288654,364.525607 847.742535,370.937505 C849.633333,373.656218 849.465262,375.860351 847.804326,378.58327 C839.833313,391.666458 832.022957,404.788906 824.852753,418.017915 C822.393479,422.549569 817.813545,426.272199 813.42887,430.029883 C807.768833,434.877014 800.952073,439.302107 794.352816,443.776274 C788.534594,447.721842 788.598857,452.620852 790.620651,456.713642 C792.434829,460.391404 792.217326,463.861653 792.469432,467.427246 C792.64739,469.990323 793.814,471.325142 798.633682,472.32205 C804.303605,473.494223 809.244397,475.844177 814.387863,477.779103 C818.594581,479.362098 824.734114,479.230298 827.146427,482.396287 C822.020262,484.516293 826.597725,488.044029 823.270908,490.619725 C820.272819,492.940235 824.101376,496.521251 819.734003,498.868401 C820.025656,505.186357 814.303828,510.984126 814.738835,517.324516 C814.76108,517.662427 813.940498,518.019968 813.512906,518.367694 C813.117445,517.993327 812.286976,517.574093 812.393256,517.253008 C813.409097,514.180961 810.761979,511.073862 814.271697,507.854593 C816.303378,505.991174 814.321129,502.837805 814.892076,500.320998 C815.799165,496.312335 812.037341,492.033063 817.111602,488.220696 C817.57874,487.870166 816.50358,486.411961 815.47291,485.932435 C807.830624,482.38507 799.97825,478.980721 792.279116,475.469811 C790.099137,474.475707 788.942413,475.216027 787.115878,475.876426 C777.993084,479.172811 768.062068,481.742899 759.767271,485.790821 C759.070271,486.130134 757.592235,485.953467 756.477529,486.016563 C756.707391,485.520212 756.650543,484.845792 757.211604,484.556955 C764.374393,480.883399 771.628632,477.270134 778.845797,473.630228 C781.317429,472.385145 783.062401,471.154083 782.839954,468.924711 C782.340685,464.036918 782.533472,459.119681 782.763334,454.220671 C782.847369,452.428761 782.167671,450.921481 779.505723,450.084415 C764.1124,445.249903 748.434839,440.698619 733.283736,435.634159 C727.344405,433.650158 722.813903,434.581167 718.518207,436.482442 C705.282619,442.337698 691.186902,447.477873 677.466874,452.925112 C671.403961,455.332553 665.568438,457.961529 659.302852,460.259605 C655.857397,461.524318 653.576081,463.306413 654.147027,466.044755 C655.190056,471.050326 651.450477,475.796505 651.366442,480.867975 C651.284878,485.925425 655.246904,489.324165 659.910873,492.9837 C661.739881,494.420874 667.7064,495.360295 664.903569,497.184454 C662.760664,498.578162 660.400256,495.23831 657.481259,494.549869 C655.723929,494.134841 654.065464,493.529125 652.53058,492.881346 C648.420257,491.148324 644.401383,489.345197 640.345435,487.570112 C636.173321,489.385859 630.733259,488.163209 626.647652,489.108239 C611.906839,492.523805 595.542165,492.261608 581.028743,495.977228 C572.177829,495.532756 564.290852,497.90234 555.877417,498.683321 C552.901572,498.958137 550.847646,499.506366 548.497124,500.515893 C536.764288,505.5453 526.776424,511.609472 516.333779,517.410045 C515.76036,517.729729 514.628353,517.725522 513.753395,517.871343 C513.837431,517.238986 513.511175,516.44118 514.064821,515.999512 C520.664078,510.762591 527.557459,505.640644 533.958986,500.328009 C535.370288,499.160042 535.738561,497.328872 535.516114,495.855244 C535.266479,494.172699 534.04055,492.492958 532.834393,490.911366 C531.324226,488.928767 530.080995,486.627887 527.446236,485.249603 C525.162448,484.053594 521.076841,483.98489 517.821701,483.362348 C497.976969,479.565405 478.132237,475.774071 458.705211,471.302708 C451.651174,469.680454 444.055849,468.815346 437.019113,467.176267 C434.676006,466.632244 434.426371,467.372564 433.45502,467.810025 C425.086075,471.58874 417.124948,475.701161 408.306166,479.099901 C400.406831,482.143905 394.660287,486.574607 386.093611,489.186757 C379.934304,491.062795 377.23281,494.821881 375.178884,498.458982 C370.747248,506.301043 367.022499,514.280512 362.148441,522.030033 C361.078225,523.735012 361.095526,524.353347 362.234948,526.028881 C365.6458,531.044267 371.777919,535.040311 376.864537,539.354636 C378.925878,541.103081 385.028337,542.025676 389.336392,542.073348 C400.495809,542.195333 410.728365,545.096321 421.865538,545.103331 C423.459741,545.104733 426.12416,546.139498 426.47266,546.94712 C428.583434,551.855945 430.194938,556.834875 431.875647,561.799785 C431.996757,562.158728 431.373906,562.598993 431.099555,563 C430.550853,562.580766 429.918115,562.189574 429.473221,561.738091 C425.919015,558.138848 422.399411,554.526985 418.874864,550.919328 C411.618153,550.298189 404.606133,549.242392 397.586699,547.969266 C393.291003,547.191089 388.117877,546.677913 383.876557,546.675109 C372.447731,546.670902 366.120354,542.701499 360.46526,538.394184 C353.230794,532.886654 345.679958,528.301719 333.440437,526.1074 C313.491897,522.53059 294.492463,517.35396 274.264628,514.145908 C273.135092,513.966437 271.459326,513.111143 271.503815,512.610586 C272.07229,505.96173 267.190817,499.552636 268.903658,492.872933 C269.474605,490.640757 267.479998,489.175541 265.201154,487.407466 C258.263283,482.020519 249.847377,477.30098 243.888272,471.445724 C240.549098,468.166164 235.237561,465.544198 230.998712,462.54366 C225.079154,458.351319 219.386986,454.056623 213.474842,449.860076 C211.655721,448.568723 209.50293,447.242317 206.663025,449.30764 C206.425748,449.481503 206.09455,449.639943 205.74605,449.735287 C194.764589,452.737228 183.778186,455.729353 172.789311,458.722881 C172.715162,465.943803 172.435867,473.167528 172.683031,480.385646 C172.767066,482.767849 174.341495,485.126216 175.003893,487.51543 C175.688535,489.990173 173.335541,491.137107 169.287008,491.814332 C160.507772,493.28095 151.837288,494.960691 143.127257,496.568923 C140.593834,497.037231 136.992667,497.143792 135.818642,498.146309 C134.016822,499.687239 133.601588,501.835288 133.099847,503.768813 C131.3178,510.608358 129.768087,517.468934 128.065132,524.31549 C127.968739,524.695464 127.256909,525.026365 126.83426,525.379699 C126.433855,525.006735 125.724497,524.643586 125.682479,524.258003 C124.797635,516.281338 124.085805,508.297663 123.12434,500.323802 C122.676975,496.633421 125.717082,494.802251 131.354874,493.051002 C141.505866,489.900437 150.645961,485.705292 160.782123,482.535097 C166.061529,480.883399 168.970639,480.002867 165.451036,476.254998 C163.74561,474.436448 164.796053,471.651836 165.236004,469.343945 C166.115905,464.700121 163.416883,460.544236 160.159272,456.504726 C154.140848,449.039835 147.87279,441.639442 141.520696,434.264287 C138.023337,430.205148 134.086028,428.63337 127.6672,430.336947 C122.377908,431.743274 117.506321,431.181024 112.461721,431.520337 C106.20602,431.940973 99.9577351,431.004357 93.5586802,432.726161 C89.7054062,433.760926 84.8733659,432.803277 80.3700527,430.732345 C74.339271,427.95895 69.0672803,424.536374 61.8427004,422.496288 C59.0868309,421.719513 57.9103341,421.698481 55.7352981,422.783723 C43.7033943,428.789006 31.560267,434.722781 19.3380476,440.603275 C18.408714,441.051954 16.5920646,440.904731 15.1857061,441.033726 C15.5910537,440.538777 15.8159722,439.956897 16.4239936,439.561499 C27.4499433,432.334969 38.5179107,425.130873 49.5883497,417.925375 C50.1246938,417.574844 50.8340522,417.300029 51.3135487,416.925663 C56.8351743,412.607131 58.4021889,412.377183 65.705861,415.073461 C67.974819,415.910527 69.539362,417.065875 72.4534159,417.694025 C77.9651549,418.883023 82.8416846,421.019855 87.9802072,422.764093 C91.183442,420.013132 95.2739927,417.464077 97.3773514,414.466343 C100.652264,409.8099 108.314322,406.423778 109.011323,401.070482 C109.115131,400.26286 110.58328,399.519736 110.751351,398.7023 C111.705401,394.000989 111.245678,389.083752 113.564068,384.623606 C117.229498,377.573743 116.497895,370.178958 120.440148,363.154333 C122.679447,359.166702 121.955259,354.67571 123.28994,350.484771 C124.342855,347.179972 126.458572,343.957899 125.568784,340.549343 C125.121419,338.845767 124.718543,336.870179 122.983457,335.592847 C117.85235,331.814131 112.05143,328.328459 106.539691,324.713792 C104.322637,323.262597 101.512392,323.168655 99.0160434,324.092653 C91.6085627,326.835201 82.8268548,328.060654 75.8444948,331.38368 C71.8799973,333.269533 66.2891661,334.016863 61.6227252,335.472264 C53.5577905,337.987669 45.6535118,340.668524 37.6330665,343.230198 C37.0571763,343.413876 36.0709952,343.182526 35.2776013,343.144669 C35.4605021,342.648318 35.3344489,341.940247 35.8757362,341.689268 C48.7652963,335.705016 61.4645407,329.573542 74.7446186,323.878128 C90.1849028,317.255912 104.409144,309.792424 120.230059,303.412774 C131.577321,298.83485 141.384756,293.04269 152.497213,288.254447 C158.73314,285.567984 164.163316,282.331889 171.106129,280.053443 C174.887726,278.811164 179.34655,276.978593 179.971873,273.872895 C180.809756,269.701586 177.403847,266.051866 174.358797,262.601247 C172.977155,261.039284 168.090739,260.1237 164.487099,259.607719 C153.891214,258.089222 150.393855,253.497277 147.828301,248.279986 C146.397226,245.364977 144.741233,242.475206 142.87515,239.638716 C141.414416,237.420561 140.408462,234.603701 137.474635,233.343194 C134.785499,232.189249 129.795275,232.740282 125.808533,232.583245 C124.169841,232.518747 122.516319,232.555202 120.870212,232.576234 C84.5742985,233.038934 48.2759132,233.508644 11.9799996,233.969942 C9.51331097,234.002191 7.03426423,234.03444 4.57251891,233.951714 C3.03763554,233.901238 1.52252522,233.636237 0,233.466581 C1.6139756,233.167929 3.19334834,232.761314 4.84934168,232.590255 C16.6538554,231.37041 28.0678512,229.094768 40.0577373,228.369872 C44.5264477,225.495524 51.6373325,228.057199 56.7140643,225.690419 C58.7383308,224.748194 59.0720011,224.347188 58.414547,223.14557 C55.245915,217.349203 52.1662617,211.534609 49.0767219,205.72422 C48.9654985,205.509696 48.9679701,205.243293 49.0791936,205.030171 C49.4128639,204.410433 49.8330413,203.806119 50.2161442,203.196197 C50.6560947,203.529901 51.1528927,203.842574 51.5236375,204.198713 C58.9459479,211.327095 66.5758754,218.390979 73.627441,225.634334 C75.7406863,227.803415 78.2049032,228.42175 82.1520993,228.396512 C93.6773186,228.320798 105.207481,228.28294 116.7327,228.406327 C122.360606,228.466618 127.172873,226.064785 133.038056,226.879418 C133.58923,226.955132 135.205677,225.83624 135.433067,225.174439 C137.131078,220.19691 137.299149,215.074963 140.363973,210.213811 C141.718427,208.062958 138.834032,205.456415 142.106473,203.385483 C142.380824,205.889671 142.763927,208.392456 142.897395,210.899448 C143.033335,213.465329 143.322516,216.059252 142.847963,218.599895 C141.634391,225.094518 145.181183,230.911917 150.403741,236.458706 C154.185338,240.477184 155.843803,244.966775 159.926939,248.962819 C161.830095,250.822031 163.86672,252.55365 166.718983,253.497277 C174.615847,256.106624 182.960076,258.277107 191.133762,260.615844 C197.854129,262.540956 198.825481,262.557781 203.007482,259.39039 C209.320029,254.606355 215.370584,249.708747 221.374178,244.79852 C228.457875,239.004957 235.071962,233.017902 242.546176,227.3968 C244.649535,225.813806 248.868611,224.860364 252.452477,224.253246 C257.279574,223.435809 262.435398,223.25774 267.435509,222.759987 C274.276986,222.077154 278.137675,219.647279 278.819845,215.941474 C279.472356,212.389902 279.353718,208.621002 281.550998,205.376494 C283.805127,202.043654 284.010272,198.53695 285.700868,195.184479 C288.310912,190.000839 286.219911,184.270371 283.360233,179.096546 C282.277658,177.137783 281.652335,175.292593 281.167895,173.3142 C280.75019,171.609221 278.921182,169.956121 278.943427,168.284793 C278.97803,165.818463 276.625036,164.054595 274.541451,162.286521 C257.502021,147.823646 240.267332,133.435083 223.116678,119.015674 C222.792895,118.743662 222.758292,118.362285 222.592692,118.032787 C223.707398,117.965485 225.341147,117.593923 225.857718,117.877152 C233.247897,121.937693 240.479892,126.092177 247.771206,130.211608 C250.482586,131.741321 252.82075,131.343119 254.059037,129.050652 C257.417985,122.830844 260.655823,116.590005 263.990054,110.364589 C264.200143,109.974799 264.808164,109.652312 265.233285,109.297575 C265.631218,109.669137 266.446856,110.072948 266.370236,110.410859 C265.544711,113.963833 268.335183,117.661225 264.338554,121.159516 C263.016231,122.314864 264.234746,124.340928 263.90849,125.943552 C263.471011,128.121046 264.370685,130.187772 261.943543,132.5209 C259.847599,134.532944 261.06117,137.7438 263.903547,140.218543 C266.827488,142.766196 269.135992,145.538189 271.98084,148.116689 C275.139585,150.978417 277.413487,151.253233 283.132843,149.524418 C294.9423,145.953217 306.974204,142.579714 318.356068,138.606104 C326.062616,135.915435 333.084522,135.772418 340.739166,138.098537 C342.073847,138.505152 343.628504,138.684623 344.931054,139.116476 C349.095753,140.498967 352.630187,140.615343 356.807245,138.686025 C366.87173,134.042201 377.393466,129.719463 387.705115,125.2481 C394.904978,122.128382 402.070239,118.980621 409.240443,115.838468 C412.258305,114.516268 412.223702,113.58526 410.125287,111.383931 C401.610515,102.456628 393.894081,93.2741396 386.412451,84.0467833 C383.89633,80.9494986 380.994634,79.5571928 374.746349,79.7703151 C365.31213,80.0928029 355.813649,79.7436748 346.354714,79.9007123 C341.596822,79.9806332 338.0179,79.4450231 334.552672,77.2983763 C327.562897,72.9672254 321.247877,68.3949098 315.392582,63.5632018 C312.026219,60.7870028 307.881292,58.315064 304.126884,55.6888919 C302.987461,54.8910853 302.37944,54.9906358 300.533131,55.4365102 C296.338772,56.4474393 291.573466,56.6633658 287.191262,57.466781 C276.647281,59.4003055 265.702895,60.5556529 255.346758,62.891586 C253.040725,63.4117728 249.704022,63.0374066 247.160713,62.5466643 C236.715597,60.5290126 226.396534,58.2954343 216.010737,56.1726236 C214.023545,55.7660086 211.944902,55.5010078 209.910749,55.1715094 C212.248913,54.992038 214.643924,54.5489678 216.915354,54.7003969 C219.92333,54.9023022 222.800309,55.6580453 225.793456,56.0113797 C228.82862,56.3703226 231.76739,55.9188397 235.052189,56.9213561 C240.131392,58.4721016 246.967926,56.4628626 252.143523,58.8380551 C256.718513,57.7766497 261.597515,57.0012769 265.796817,55.5809287 C271.155315,53.7707908 277.346753,53.2898634 282.683006,51.6325567 C284.880287,50.949724 287.653457,49.7635298 283.775467,48.1384719 C283.380006,47.9730217 283.772995,47.2425168 283.716148,46.7784149 C282.902981,39.9655103 283.051279,33.0530552 280.891073,26.3803628 C279.576165,22.328234 278.824788,18.3714493 278.844562,14.313712 C278.847033,13.7668849 279.687388,13.2200578 280.142168,12.6732308 C280.510441,13.2859575 280.896016,13.8972821 281.249459,14.5142153 C287.018248,24.6010716 292.752434,34.6935365 298.595372,44.7663716 C299.060038,45.572591 299.999259,46.4152656 301.141152,46.9494736 C307.354835,49.8532656 311.608513,53.8577223 319.075313,56.1515918 C326.047787,58.2940322 329.545146,63.0878829 337.442009,64.8587614 C338.848368,65.1742385 340.042166,66.0421513 340.934425,66.8049049 C348.940041,73.6696879 360.96453,71.2047597 371.933632,71.103807 C372.907455,71.0953943 373.804657,70.174201 374.842742,70.0914759 C378.011374,69.8418984 383.070805,70.4237785 384.024855,69.5264212 C385.680848,67.9728715 384.929472,65.551409 384.97149,63.4944979 C385.055525,59.29094 385.020922,55.0887843 384.983848,50.8852264 C384.97149,49.5083439 385.438628,47.9632069 384.506823,46.8008488 C383.56266,45.6202631 381.03418,44.8252607 383.859255,43.4806269 C385.060468,44.5995193 386.647256,45.6398928 387.401104,46.8485209 C390.844087,52.3490404 393.988003,57.9098511 397.364252,63.4243919 C401.61793,70.3704979 406.744095,77.1427409 409.873181,84.3187947 C410.318074,85.3367343 413.160451,86.7486699 414.836217,86.7248338 C419.922836,86.6477172 425.367841,87.9012131 430.160335,85.8218681 C430.983388,85.4657294 432.416935,85.5288248 433.581073,85.4657294 C442.293575,84.9862041 451.255713,85.0759399 459.646903,83.8771267 C465.981695,82.9713567 472.318959,83.241966 478.414003,82.5198738 C485.940122,81.6295272 492.781599,79.4183828 498.584991,76.3813894 C508.698908,71.0841773 518.392648,65.4799009 529.161548,60.6467908 C535.827539,57.6546652 541.984374,54.4382003 548.076947,51.1277933 C548.489709,50.903454 549.218841,50.8641946 549.799674,50.7394059 C550.032008,51.1516293 550.67216,51.6802288 550.424997,51.9578487 C549.053241,53.5099964 547.451624,54.9976464 545.948872,56.5133389 C538.432639,64.0918013 530.25401,71.4501308 522.99977,79.1253396 C520.629475,81.6295272 520.646777,82.8451658 523.541058,85.0408868 C528.130878,88.5195483 531.734517,92.4216502 535.652054,96.1779316 C537.567568,98.0161119 540.192441,98.6456641 542.597339,97.622116 C543.576105,97.2056861 544.329953,96.6252081 545.239513,96.1512913 C555.07908,91.0279423 564.970551,85.936842 574.750798,80.7784399 C578.052898,79.0384081 576.871458,80.9214562 577.756302,81.7066438 C582.249729,85.692873 582.37331,90.4250304 584.995712,94.7253346 C588.611709,100.659109 591.985487,106.657382 594.780902,112.728564 C595.742367,114.821931 597.309382,115.807622 600.690574,116.291353 C613.347801,118.105697 625.908634,120.13737 638.523843,122.031635 C648.85032,123.583783 659.520355,124.528812 669.473617,126.953079 C675.010072,128.301919 679.790208,127.589642 684.688982,125.091063 C697.677408,118.46464 710.868507,111.950387 725.070503,106.123174 C729.353841,104.367719 732.937707,101.999537 736.437538,99.7126779 C739.680319,97.5968778 738.760872,95.0660499 737.310024,92.6572065 C733.859626,86.9309456 730.15465,81.2523567 726.911869,75.4896406 C724.939507,71.9843388 724.447652,68.292555 721.167797,64.9092377 C719.225094,62.902803 722.519779,60.579489 724.726946,58.8885314 C738.170152,48.5969654 751.348893,38.2114573 763.079258,27.253884 C763.702109,26.6720039 764.720421,26.2008913 765.679415,25.7648318 C772.206994,22.8007486 770.911859,19.2015048 769.028476,15.2629477 C767.300805,11.6580954 764.465843,8.10091513 765.419893,4.1988132 C765.52123,3.7851876 765.973539,3.3996044 766.265191,3 C766.796592,3.20470962 767.56527,3.33931321 767.827263,3.62394371 C772.817487,8.98845754 777.750864,14.3683947 782.679298,19.7483319 C783.828607,21.0018278 784.389668,21.7842111 782.444493,23.4653538 C770.607848,33.6966287 759.515165,44.2041212 748.071509,54.5826187 C745.389789,57.013896 742.270589,59.2881358 739.430684,61.6633283 C734.245201,66.0056961 736.346088,74.5474155 743.474274,77.8802564 C744.287441,78.2602311 745.931076,78.6135655 746.697282,78.4018453 C760.600211,74.588077 776.225868,73.891223 790.40562,70.6004457 C791.81445,70.2723494 793.413595,70.1559734 794.946007,70.0788568 C795.628178,70.0452059 796.364724,70.3522703 797.076554,70.5051015 C796.779958,70.8345998 796.636603,71.2958975 796.159578,71.4739669 C793.591553,72.4386259 791.053187,73.4635762 788.297318,74.2263298 C777.689074,77.1637727 766.957248,79.9596014 756.368777,82.9208803 C753.607965,83.6920467 751.084428,84.787103 748.669644,85.8891699 C747.040839,86.633696 746.002753,87.0767661 747.468431,88.934576 C749.764577,91.849585 747.960286,95.4207864 750.310808,98.7648443 C753.31384,103.038508 746.828278,105.738993 741.684813,107.679528 C739.072298,108.665219 737.238347,108.656806 740.540447,109.813556 C750.333052,113.248751 760.4618,116.376883 770.251933,119.816285 C773.729519,121.037532 776.156662,120.773933 778.749404,119.230198 C781.305071,117.708897 784.026338,116.277332 786.582005,114.756031 C789.159917,113.222111 791.547513,113.001978 795.099248,114.105447 C800.75187,115.862304 806.777709,117.263023 812.798604,118.595037 C816.582672,119.433506 820.070145,119.493797 823.802309,117.635987 C829.956672,114.570951 836.914316,112.020493 843.602552,109.308792 C844.086992,109.113897 845.211584,109.286358 845.893754,109.464427 C846.17552,109.53874 846.353478,110.245409 846.096428,110.389827 C838.726022,114.524681 832.151481,119.014272 826.926452,124.113785 C823.050933,124.167065 818.784896,124.837279 815.386403,124.139023 C809.447071,122.919178 803.223502,122.756532 797.22238,122.062482 C789.496059,121.169331 782.792993,125.193418 782.706486,129.788167 C782.612564,134.689981 782.42472,139.60161 782.795465,144.496413 C782.975894,146.887029 784.671434,149.231375 785.061951,151.629001 C785.474714,154.175253 784.757941,156.790208 785.333831,159.315427 C785.595824,160.456753 787.40753,161.776149 789.182162,162.460384 C795.227773,164.793513 801.500775,166.945768 807.815794,169.044743 C821.051383,173.448804 834.432798,177.716859 847.606595,182.179809 C850.535479,183.171109 851.954196,183.828703 855.676473,182.293381 C866.588728,177.791172 878.259773,173.873646 889.755333,169.838343 C890.625348,169.534083 892.454355,170.110354 893.840941,170.277207 C893.527043,170.903955 893.524572,171.679327 892.849816,172.135017 C887.701407,175.616482 882.379984,179.016625 877.211802,182.489678 C875.975986,183.318331 874.962617,184.282991 874.11979,185.260269 C873.254719,186.262785 869.023285,187.844377 875.565695,187.782684 C890.793419,187.642472 906.026086,187.761652 921.258753,187.723795 C925.883176,187.712578 928.856549,187.977579 931.315823,191.104308 C934.126068,194.679716 940.255715,197.401232 944.788688,200.564416 C946.484227,201.747806 947.813965,203.107863 949.148646,204.439878 C949.546579,204.83808 949.390866,205.414352 949.489732,205.910702 C948.375026,205.773295 946.904405,205.846205 946.202461,205.464828 C941.147974,202.720878 936.145391,199.940472 931.343011,197.05631 C928.695893,195.467707 925.660729,195.093341 921.95081,194.599795 C903.816447,192.192353 885.516485,193.891724 867.337632,193.347701 C866.10676,193.311246 864.769607,193.166827 863.652429,193.372939 C858.217311,194.372651 852.841512,195.474718 847.443468,196.54033 C847.26551,198.834199 846.968914,201.125264 846.93184,203.419134 C846.852748,208.32235 848.224503,213.384006 846.482003,218.079708 C845.14485,221.678952 844.79635,225.173037 844.356399,228.754053 C844.074633,231.047922 845.476049,232.623906 848.357971,234.162033 C854.650746,237.520112 860.436836,241.189462 866.843306,244.473228 C869.784548,245.98191 868.150799,246.633896 866.264944,247.490592 C864.752305,248.177631 863.143273,248.814194 861.474922,249.376444 C850.241355,253.176191 839.845671,257.740094 827.952179,260.956559 C825.201253,261.701085 823.747933,262.905507 826.380221,265.362023 C830.260683,268.980896 832.087219,273.331677 834.514361,277.423065 C836.911844,281.469585 836.761075,281.581755 842.912966,281.595776 C861.85061,281.63784 880.785781,281.611199 899.725896,281.611199 C902.607819,281.611199 905.521873,281.468183 908.351891,281.686914 C909.385033,281.766835 911.023725,282.717473 911.003952,283.257289 C910.801278,289.191064 914.150339,294.886478 914.036644,300.893163 C913.955081,305.03643 916.444014,309.280649 916.285829,313.623017 C916.246283,314.611512 918.577032,316.155247 920.398625,316.531016 C924.363122,317.345648 928.688478,317.623268 932.892724,318.027078 C938.300654,318.545863 944.400642,318.269645 948.958331,319.650734 C953.00192,320.876188 956.944173,320.152693 960.394571,320.964521 C963.78565,321.759524 967.045733,322.016112 970.557921,322.316166 C979.789466,323.108364 988.64038,325.147047 998.170992,325.076941 C998.776542,325.072735 999.391979,325.531228 1000,325.775197 C999.340074,325.998135 998.625773,326.455226 998.027638,326.410358 C990.135717,325.831282 982.078197,327.501208 974.146731,325.284455 C970.832273,324.357653 966.086739,325.047497 961.993717,325.050301 C953.278743,325.05591 953.525906,325.076941 953.024165,330.226931 C952.744871,333.085855 951.538714,335.920943 950.631626,338.754629 C949.793742,341.37379 952.720154,344.300016 948.483777,346.679415 C947.843625,347.03976 948.27616,348.001615 948.177295,348.684448 C947.361657,354.327984 946.568263,359.972922 945.648816,365.612251 C945.577138,366.042702 944.598372,366.425481 944.039783,366.829292 C943.772847,366.425481 943.278521,366.02167 943.276049,365.616457 C943.226617,358.844214 943.241446,352.073373 943.241446,345.30113" id="Fill-1"></path>
                </g>
            </g>
        </g>
    </g>
</svg>