<?xml version="1.0" standalone="no"?>
<!DOCTYPE svg PUBLIC "-//W3C//DTD SVG 20010904//EN"
 "http://www.w3.org/TR/2001/REC-SVG-20010904/DTD/svg10.dtd">
<svg version="1.0" xmlns="http://www.w3.org/2000/svg"
 width="1080.000000pt" height="1080.000000pt" viewBox="0 0 1080.000000 1080.000000"
 preserveAspectRatio="xMidYMid meet">
<metadata>
Created by potrace 1.11, written by Peter Selinger 2001-2013
</metadata>
<g transform="translate(0.000000,1080.000000) scale(0.100000,-0.100000)"
fill="#000000" stroke="none">
<path d="M0 5400 l0 -5400 5400 0 5400 0 0 5400 0 5400 -5400 0 -5400 0 0
-5400z m5436 1724 l184 -106 0 -827 0 -826 -299 -173 c-164 -94 -304 -172
-310 -172 -12 0 -529 295 -583 332 l-28 19 0 349 0 349 28 19 c54 37 571 332
583 332 7 0 48 -21 91 -46 44 -25 86 -43 94 -40 12 5 14 73 14 431 0 415 3
465 31 465 6 0 94 -48 195 -106z m-1936 -332 c28 -72 29 -73 95 -49 42 16 113
21 230 18 l70 -1 -24 -19 c-27 -21 -24 -23 52 -37 20 -3 37 -10 37 -14 0 -4
-15 -27 -34 -52 l-34 -44 49 -23 c48 -22 109 -87 109 -117 0 -7 18 -46 40 -86
47 -86 49 -98 15 -98 -23 0 -25 -4 -25 -45 0 -42 3 -47 43 -72 23 -15 52 -36
65 -47 l22 -19 0 -363 c0 -362 0 -363 -22 -388 -29 -31 -610 -366 -636 -366
-10 0 -117 57 -238 126 -120 69 -259 149 -307 176 -48 28 -94 60 -102 72 -13
17 -15 80 -15 377 0 339 1 358 20 381 10 14 33 31 50 38 27 11 30 17 30 59 1
126 58 276 150 388 l51 63 -11 62 c-5 35 -10 67 -10 73 0 5 24 -14 53 -43 l52
-52 28 35 c37 46 85 71 108 56 21 -12 23 -10 39 48 6 23 14 40 18 37 3 -4 18
-37 32 -74z m-1098 -544 l298 -172 0 -457 c0 -388 -2 -458 -14 -462 -8 -3 -98
42 -200 100 l-186 107 0 224 c0 124 -4 231 -10 241 -9 18 -180 121 -199 121
-6 0 -53 -25 -105 -56 l-96 -56 -2 -236 -3 -237 -188 -108 c-154 -90 -190
-107 -202 -97 -13 11 -15 77 -15 461 l0 449 27 17 c77 50 570 332 582 332 8 1
149 -76 313 -171z m4379 0 l299 -173 0 -116 c0 -81 -4 -120 -12 -127 -14 -10
-293 -174 -340 -198 -46 -24 -58 0 -58 111 l0 94 -94 56 c-52 30 -99 55 -106
55 -6 0 -54 -25 -106 -56 l-95 -56 3 -120 3 -120 271 -157 c289 -167 304 -176
304 -196 0 -13 -358 -225 -380 -225 -11 0 -529 296 -582 332 l-28 19 0 348 c0
285 3 351 14 360 28 23 581 340 595 341 8 0 148 -78 312 -172z m2392 -295
c150 -86 281 -164 291 -174 16 -15 17 -21 7 -33 -14 -17 -355 -216 -370 -216
-6 0 -54 25 -108 55 l-97 55 -62 -35 c-34 -18 -81 -45 -103 -60 l-41 -25 0
-249 c0 -137 3 -256 6 -265 5 -14 28 -16 144 -16 101 0 140 -3 148 -13 13 -15
7 -29 -120 -247 l-84 -145 -45 -5 -44 -5 -5 -234 -5 -234 -179 -103 c-153 -89
-207 -114 -218 -101 -1 1 -5 153 -8 337 l-5 335 -145 5 c-125 4 -145 7 -148
22 -2 9 45 100 103 202 l107 185 41 3 42 3 5 384 c3 242 9 386 15 388 6 2 141
80 300 173 160 93 294 169 298 169 4 1 130 -69 280 -156z m-2649 -149 l46 -26
0 -56 0 -57 -47 -29 -48 -29 -52 28 -53 27 0 57 c0 55 1 57 43 83 53 33 55 33
111 2z m-1921 -819 c216 -125 257 -152 255 -169 -3 -19 -57 -54 -320 -204
l-54 -31 -92 55 c-51 29 -101 54 -110 54 -10 0 -58 -24 -107 -53 l-90 -53 -3
-119 -3 -120 101 -58 101 -58 97 56 c54 30 103 55 108 55 5 0 91 -47 189 -104
148 -85 180 -107 180 -126 0 -18 -47 -49 -285 -186 -156 -90 -287 -164 -290
-164 -3 0 -140 78 -305 173 l-300 173 -3 356 -2 356 279 161 c367 212 329 194
366 173 16 -10 146 -85 288 -167z m1457 2 l285 -165 0 -358 0 -358 -300 -173
c-164 -95 -302 -173 -305 -173 -3 0 -140 78 -305 173 l-300 174 -3 355 -2 356
267 155 c348 201 343 198 362 187 9 -5 144 -83 301 -173z m1450 5 l295 -170 0
-459 c0 -423 -1 -458 -17 -461 -16 -3 -334 173 -370 206 -16 14 -18 39 -18
244 l0 228 -45 29 c-25 16 -70 42 -100 57 l-55 29 -55 -29 c-30 -15 -75 -41
-100 -57 l-45 -29 0 -229 0 -230 -32 -24 c-68 -49 -339 -198 -356 -195 -16 3
-17 35 -20 460 l-2 456 302 176 c167 96 308 174 313 172 6 -2 143 -80 305
-174z"/>
<path d="M4905 5895 l-90 -53 0 -122 0 -122 93 -54 c52 -30 98 -54 104 -54 5
0 52 25 104 56 l95 55 -3 121 -3 122 -90 52 c-49 29 -97 53 -105 53 -8 -1 -55
-25 -105 -54z"/>
<path d="M3346 6705 c-21 -21 -38 -49 -42 -71 l-7 -35 -33 32 c-30 29 -34 31
-34 13 0 -11 -25 -52 -55 -90 -97 -121 -135 -226 -135 -374 0 -113 14 -195 52
-310 l32 -95 8 55 c4 30 21 105 36 165 l28 110 13 -35 14 -35 9 45 c6 25 21
60 35 78 l25 33 44 -36 44 -36 10 26 c5 14 10 30 10 34 0 15 47 51 67 51 24 0
49 -57 40 -91 -3 -10 -1 -19 3 -19 13 0 50 50 50 67 0 8 3 13 8 11 73 -33 115
-63 124 -89 5 -16 12 -29 15 -29 17 0 67 48 89 86 29 50 44 56 44 19 0 -14 20
-80 45 -146 25 -66 48 -138 51 -160 6 -37 24 -55 24 -24 0 8 12 40 26 72 43
97 65 294 39 356 -6 14 -2 20 14 24 30 8 26 23 -24 92 -50 68 -52 73 -27 64
11 -4 7 5 -13 26 -16 17 -51 39 -77 49 -43 15 -48 20 -48 47 0 16 7 39 15 49
8 11 15 23 15 27 0 16 -78 20 -119 6 -37 -13 -43 -13 -48 -1 -3 8 3 24 13 36
l19 21 -60 -7 c-47 -5 -121 -32 -175 -63 -3 -2 -13 16 -22 39 l-15 43 -16 -37
c-27 -65 -84 -63 -73 3 3 22 4 39 1 39 -2 0 -20 -16 -39 -35z"/>
<path d="M3459 6047 c10 -10 105 -11 124 -1 10 6 -11 9 -58 9 -41 0 -70 -3
-66 -8z"/>
<path d="M3350 6025 c14 -8 36 -14 50 -14 23 0 23 1 5 8 -11 4 -33 11 -50 15
l-30 6 25 -15z"/>
<path d="M3513 5993 c9 -2 25 -2 35 0 9 3 1 5 -18 5 -19 0 -27 -2 -17 -5z"/>
<path d="M3215 5907 c-11 -23 -21 -44 -23 -48 -2 -4 15 -2 36 4 30 8 45 7 68
-5 110 -57 135 -69 161 -74 17 -3 35 1 48 10 19 15 19 15 -11 10 -24 -5 -43 2
-94 35 -67 44 -122 64 -147 54 -13 -5 -15 -1 -11 21 8 41 -5 38 -27 -7z"/>
<path d="M3872 5923 c4 -32 3 -33 -32 -33 -25 0 -59 -14 -113 -46 -54 -32 -85
-45 -102 -41 -28 5 -34 -7 -9 -17 32 -12 65 -4 137 35 94 51 99 53 130 41 17
-6 32 -10 34 -8 2 2 -8 25 -23 52 -25 46 -26 47 -22 17z"/>
<path d="M3234 5822 c4 -7 1 -12 -6 -12 -8 0 -6 -5 5 -11 10 -6 21 -8 24 -5 4
3 1 6 -6 6 -7 0 -10 4 -6 9 3 5 0 13 -6 17 -8 4 -9 3 -5 -4z"/>
<path d="M3848 5793 c6 -2 18 -2 25 0 6 3 1 5 -13 5 -14 0 -19 -2 -12 -5z"/>
<path d="M3239 5771 c11 -7 11 -10 0 -15 -8 -3 -3 -4 10 -3 36 3 39 27 4 27
-19 0 -24 -3 -14 -9z"/>
<path d="M3505 5760 c-4 -6 12 -10 40 -10 28 0 44 4 40 10 -3 6 -21 10 -40 10
-19 0 -37 -4 -40 -10z"/>
<path d="M3822 5761 c-11 -6 -10 -10 4 -15 10 -4 24 0 33 9 14 13 13 15 -4 15
-11 0 -26 -4 -33 -9z"/>
<path d="M3622 5751 c-10 -6 -9 -10 7 -14 12 -3 21 -13 21 -24 0 -24 -71 -83
-99 -83 -23 0 -101 49 -101 64 0 16 13 32 30 38 12 5 12 7 -3 13 -30 12 -110
-76 -201 -222 -42 -69 -21 -49 33 30 27 39 68 92 90 117 33 37 40 41 41 24 0
-14 17 -32 50 -53 58 -37 74 -36 136 15 l41 34 25 -28 c14 -15 49 -60 77 -99
29 -40 55 -73 57 -73 9 0 -71 119 -119 177 -26 32 -53 66 -60 75 -8 11 -17 15
-25 9z"/>
<path d="M3917 5713 c-8 -21 -15 -23 -71 -23 l-63 0 43 -44 c24 -24 44 -53 44
-64 0 -11 4 -23 9 -27 11 -6 -1 41 -18 74 -11 19 -9 21 17 21 37 0 54 20 50
57 -3 27 -4 27 -11 6z"/>
<path d="M3151 5695 c-1 -38 15 -55 51 -55 28 0 28 0 13 -30 -8 -16 -15 -35
-15 -42 1 -7 8 1 16 17 9 17 32 45 52 63 l37 34 -43 -6 c-56 -8 -87 1 -100 27
-10 21 -11 20 -11 -8z"/>
<path d="M3393 5475 c-38 -16 -42 -34 -13 -60 19 -18 20 -17 20 5 0 13 10 34
22 47 25 26 17 28 -29 8z"/>
<path d="M3727 5429 c-4 -16 -3 -18 9 -8 7 6 11 15 8 20 -8 13 -11 11 -17 -12z"/>
<path d="M3420 5354 c0 -3 15 -11 33 -18 35 -15 195 -14 221 1 9 5 -29 7 -89
5 -59 -3 -117 0 -135 6 -16 6 -30 9 -30 6z"/>
<path d="M5645 4644 c-44 -25 -85 -50 -92 -56 -9 -7 -13 -44 -13 -127 l0 -117
100 -57 101 -58 99 57 100 56 0 122 0 121 -92 53 c-50 28 -98 52 -107 52 -9 0
-52 -21 -96 -46z"/>
</g>
</svg>
