<svg xmlns="http://www.w3.org/2000/svg" width="16" height="14" viewBox="0 0 16 14">
    <path fill="#333" fill-rule="nonzero" d="M15.369.003V.001c.558.045.722.577.587 1.2l-2.494 11.55c-.162.751-.726.844-1.406.348l-3.523-2.57-1.935 1.868c-.304.293-.868.378-1.036-.135L4.11 7.809.677 6.726C-.647 6.308.301 5.715.75 5.541L14.675.134c.277-.107.507-.146.694-.13zm-2.471 2.402a.795.795 0 0 0-.267.106l-7.856 4.98c-.047.028-.1.024-.05.175l1.27 3.9.259-2.65c.005-.052.007-.085.065-.136l6.633-5.954c.366-.33.2-.466-.054-.42z"/>
</svg>
