<svg xmlns="http://www.w3.org/2000/svg" width="16" height="13" viewBox="0 0 16 13">
    <path fill="#333" fill-rule="nonzero"
          d="M15.969 1.549c-.59.259-1.22.436-1.884.516A3.305 3.305 0 0 0 15.527.25c-.634.37-1.336.64-2.084.79a3.28 3.28 0 0 0-5.59 2.988A9.29 9.29 0 0 1 1.094.61 3.214 3.214 0 0 0 .65 2.26c0 1.14.58 2.142 1.459 2.73a3.27 3.27 0 0 1-1.485-.41v.04a3.282 3.282 0 0 0 2.63 3.218 3.33 3.33 0 0 1-1.474.057 3.291 3.291 0 0 0 3.069 2.278A6.578 6.578 0 0 1 .78 11.576c-.26 0-.52-.015-.78-.044a9.33 9.33 0 0 0 5.038 1.472c6.036 0 9.332-4.997 9.332-9.323 0-.14 0-.28-.01-.42.64-.46 1.2-1.04 1.64-1.7l-.031-.012z"/>
</svg>
