<svg xmlns="http://www.w3.org/2000/svg" width="16" height="12" viewBox="0 0 16 12">
    <path fill="#333" fill-rule="nonzero" d="M15.666 1.727A2.005 2.005 0 0 0 14.273.334C13.026 0 8.007 0 8.007 0S3.001-.007 1.741.334A2.005 2.005 0 0 0 .348 1.727 20.851 20.851 0 0 0 0 5.598a20.851 20.851 0 0 0 .348 3.857 2.005 2.005 0 0 0 1.393 1.392c1.246.335 6.266.335 6.266.335s5.006 0 6.266-.335a2.005 2.005 0 0 0 1.393-1.392c.23-1.273.342-2.564.333-3.857a20.839 20.839 0 0 0-.333-3.871zm-9.26 6.266V3.196l4.177 2.402-4.178 2.395z"/>
</svg>
